<svg xmlns="http://www.w3.org/2000/svg" width="900" height="380" viewBox="0 0 900 380"><rect x="0.0" y="0.0" width="900.0" height="380.0" fill="#fcfcfb" rx="0"/><text x="24.0" y="34.0" font-size="16" fill="#0b0b0b" text-anchor="start" font-weight="600" font-family="system-ui,-apple-system,Segoe UI,sans-serif">Confidence distribution: base vs abliterated</text><text x="24.0" y="54.0" font-size="12" fill="#52514e" text-anchor="start" font-weight="400" font-family="system-ui,-apple-system,Segoe UI,sans-serif">Gemma abl grows a low-confidence tail; Qwen stays saturated high (no tail) — the confidence effect reverses sign.</text><text x="50.0" y="80.0" font-size="14" fill="#2a78d6" text-anchor="start" font-weight="600" font-family="system-ui,-apple-system,Segoe UI,sans-serif">Gemma</text><rect x="54.6" y="296.0" width="13.7" height="0.0" fill="#c3c2b7" rx="1"/><rect x="69.8" y="296.0" width="13.7" height="0.0" fill="#2a78d6" rx="1"/><text x="69.0" y="310.0" font-size="9" fill="#898781" text-anchor="middle" font-weight="400" font-family="system-ui,-apple-system,Segoe UI,sans-serif">0.40</text><rect x="92.6" y="296.0" width="13.7" height="0.0" fill="#c3c2b7" rx="1"/><rect x="107.8" y="296.0" width="13.7" height="0.0" fill="#2a78d6" rx="1"/><rect x="130.6" y="296.0" width="13.7" height="0.0" fill="#c3c2b7" rx="1"/><rect x="145.8" y="296.0" width="13.7" height="0.0" fill="#2a78d6" rx="1"/><text x="145.0" y="310.0" font-size="9" fill="#898781" text-anchor="middle" font-weight="400" font-family="system-ui,-apple-system,Segoe UI,sans-serif">0.50</text><rect x="168.6" y="255.9" width="13.7" height="40.1" fill="#c3c2b7" rx="1"/><rect x="183.8" y="223.6" width="13.7" height="72.4" fill="#2a78d6" rx="1"/><rect x="206.6" y="294.4" width="13.7" height="1.6" fill="#c3c2b7" rx="1"/><rect x="221.8" y="296.0" width="13.7" height="0.0" fill="#2a78d6" rx="1"/><text x="221.0" y="310.0" font-size="9" fill="#898781" text-anchor="middle" font-weight="400" font-family="system-ui,-apple-system,Segoe UI,sans-serif">0.60</text><rect x="244.6" y="96.0" width="13.7" height="200.0" fill="#c3c2b7" rx="1"/><rect x="259.8" y="126.2" width="13.7" height="169.8" fill="#2a78d6" rx="1"/><rect x="282.6" y="296.0" width="13.7" height="0.0" fill="#c3c2b7" rx="1"/><rect x="297.8" y="296.0" width="13.7" height="0.0" fill="#2a78d6" rx="1"/><text x="297.0" y="310.0" font-size="9" fill="#898781" text-anchor="middle" font-weight="400" font-family="system-ui,-apple-system,Segoe UI,sans-serif">0.70</text><rect x="320.6" y="293.9" width="13.7" height="2.1" fill="#c3c2b7" rx="1"/><rect x="335.8" y="294.4" width="13.7" height="1.6" fill="#2a78d6" rx="1"/><rect x="358.6" y="296.0" width="13.7" height="0.0" fill="#c3c2b7" rx="1"/><rect x="373.8" y="296.0" width="13.7" height="0.0" fill="#2a78d6" rx="1"/><text x="373.0" y="310.0" font-size="9" fill="#898781" text-anchor="middle" font-weight="400" font-family="system-ui,-apple-system,Segoe UI,sans-serif">0.80</text><rect x="396.6" y="296.0" width="13.7" height="0.0" fill="#c3c2b7" rx="1"/><rect x="411.8" y="296.0" width="13.7" height="0.0" fill="#2a78d6" rx="1"/><line x1="50.0" y1="296.0" x2="430.0" y2="296.0" stroke="#c3c2b7" stroke-width="1"/><text x="240.0" y="326.0" font-size="10" fill="#898781" text-anchor="middle" font-weight="400" font-family="system-ui,-apple-system,Segoe UI,sans-serif">confidence</text><text x="490.0" y="80.0" font-size="14" fill="#1baf7a" text-anchor="start" font-weight="600" font-family="system-ui,-apple-system,Segoe UI,sans-serif">Qwen</text><rect x="494.6" y="295.9" width="13.7" height="0.1" fill="#c3c2b7" rx="1"/><rect x="509.8" y="296.0" width="13.7" height="0.0" fill="#1baf7a" rx="1"/><text x="509.0" y="310.0" font-size="9" fill="#898781" text-anchor="middle" font-weight="400" font-family="system-ui,-apple-system,Segoe UI,sans-serif">0.40</text><rect x="532.6" y="295.4" width="13.7" height="0.6" fill="#c3c2b7" rx="1"/><rect x="547.8" y="296.0" width="13.7" height="0.0" fill="#1baf7a" rx="1"/><rect x="570.6" y="295.9" width="13.7" height="0.1" fill="#c3c2b7" rx="1"/><rect x="585.8" y="296.0" width="13.7" height="0.0" fill="#1baf7a" rx="1"/><text x="585.0" y="310.0" font-size="9" fill="#898781" text-anchor="middle" font-weight="400" font-family="system-ui,-apple-system,Segoe UI,sans-serif">0.50</text><rect x="608.6" y="284.2" width="13.7" height="11.8" fill="#c3c2b7" rx="1"/><rect x="623.8" y="296.0" width="13.7" height="0.0" fill="#1baf7a" rx="1"/><rect x="646.6" y="262.6" width="13.7" height="33.4" fill="#c3c2b7" rx="1"/><rect x="661.8" y="296.0" width="13.7" height="0.0" fill="#1baf7a" rx="1"/><text x="661.0" y="310.0" font-size="9" fill="#898781" text-anchor="middle" font-weight="400" font-family="system-ui,-apple-system,Segoe UI,sans-serif">0.60</text><rect x="684.6" y="121.8" width="13.7" height="174.2" fill="#c3c2b7" rx="1"/><rect x="699.8" y="293.6" width="13.7" height="2.4" fill="#1baf7a" rx="1"/><rect x="722.6" y="212.3" width="13.7" height="83.7" fill="#c3c2b7" rx="1"/><rect x="737.8" y="260.7" width="13.7" height="35.3" fill="#1baf7a" rx="1"/><text x="737.0" y="310.0" font-size="9" fill="#898781" text-anchor="middle" font-weight="400" font-family="system-ui,-apple-system,Segoe UI,sans-serif">0.70</text><rect x="760.6" y="222.8" width="13.7" height="73.2" fill="#c3c2b7" rx="1"/><rect x="775.8" y="161.5" width="13.7" height="134.5" fill="#1baf7a" rx="1"/><rect x="798.6" y="275.6" width="13.7" height="20.4" fill="#c3c2b7" rx="1"/><rect x="813.8" y="96.0" width="13.7" height="200.0" fill="#1baf7a" rx="1"/><text x="813.0" y="310.0" font-size="9" fill="#898781" text-anchor="middle" font-weight="400" font-family="system-ui,-apple-system,Segoe UI,sans-serif">0.80</text><rect x="836.6" y="294.9" width="13.7" height="1.1" fill="#c3c2b7" rx="1"/><rect x="851.8" y="269.7" width="13.7" height="26.3" fill="#1baf7a" rx="1"/><line x1="490.0" y1="296.0" x2="870.0" y2="296.0" stroke="#c3c2b7" stroke-width="1"/><text x="680.0" y="326.0" font-size="10" fill="#898781" text-anchor="middle" font-weight="400" font-family="system-ui,-apple-system,Segoe UI,sans-serif">confidence</text><rect x="50.0" y="341.0" width="12.0" height="12.0" fill="#c3c2b7" rx="1"/><text x="68.0" y="351.0" font-size="11" fill="#52514e" text-anchor="start" font-weight="400" font-family="system-ui,-apple-system,Segoe UI,sans-serif">base</text><rect x="130.0" y="341.0" width="12.0" height="12.0" fill="#52514e" rx="1"/><text x="148.0" y="351.0" font-size="11" fill="#52514e" text-anchor="start" font-weight="400" font-family="system-ui,-apple-system,Segoe UI,sans-serif">abliterated (family hue) · % of decisions per 0.05 bin</text><text x="24.0" y="368.0" font-size="10" fill="#898781" text-anchor="start" font-weight="400" font-family="system-ui,-apple-system,Segoe UI,sans-serif">final.db · 21,600 decyzji · prompt 305718d8 · Fafuła, funduszai.pl</text></svg>