<svg xmlns="http://www.w3.org/2000/svg" width="860" height="430" viewBox="0 0 860 430"><rect x="0.0" y="0.0" width="860.0" height="430.0" fill="#fcfcfb" rx="0"/><text x="24.0" y="34.0" font-size="16" fill="#0b0b0b" text-anchor="start" font-weight="600" font-family="system-ui,-apple-system,Segoe UI,sans-serif">Bull-rate per week: base vs abliterated</text><text x="24.0" y="54.0" font-size="12" fill="#52514e" text-anchor="start" font-weight="400" font-family="system-ui,-apple-system,Segoe UI,sans-serif">Abliterated is more bullish, amplified in up-weeks; both floor in the bearish early weeks.</text><text x="24.0" y="92.0" font-size="14" fill="#2a78d6" text-anchor="start" font-weight="600" font-family="system-ui,-apple-system,Segoe UI,sans-serif">Gemma</text><rect x="284.7" y="88.0" width="30.6" height="130.0" fill="#eef4ee" rx="0"/><rect x="315.3" y="88.0" width="30.6" height="130.0" fill="#f7eeee" rx="0"/><rect x="345.9" y="88.0" width="30.6" height="130.0" fill="#eef4ee" rx="0"/><rect x="376.5" y="88.0" width="30.6" height="130.0" fill="#eef4ee" rx="0"/><rect x="407.1" y="88.0" width="30.6" height="130.0" fill="#eef4ee" rx="0"/><rect x="437.6" y="88.0" width="30.6" height="130.0" fill="#eef4ee" rx="0"/><rect x="468.2" y="88.0" width="30.6" height="130.0" fill="#f7eeee" rx="0"/><rect x="498.8" y="88.0" width="30.6" height="130.0" fill="#f7eeee" rx="0"/><rect x="529.4" y="88.0" width="30.6" height="130.0" fill="#eef4ee" rx="0"/><rect x="560.0" y="88.0" width="30.6" height="130.0" fill="#eef4ee" rx="0"/><rect x="590.6" y="88.0" width="30.6" height="130.0" fill="#eef4ee" rx="0"/><rect x="621.2" y="88.0" width="30.6" height="130.0" fill="#eef4ee" rx="0"/><rect x="651.8" y="88.0" width="30.6" height="130.0" fill="#f7eeee" rx="0"/><rect x="682.4" y="88.0" width="30.6" height="130.0" fill="#eef4ee" rx="0"/><rect x="712.9" y="88.0" width="30.6" height="130.0" fill="#f7eeee" rx="0"/><rect x="743.5" y="88.0" width="30.6" height="130.0" fill="#f7eeee" rx="0"/><rect x="774.1" y="88.0" width="30.6" height="130.0" fill="#eef4ee" rx="0"/><rect x="804.7" y="88.0" width="30.6" height="130.0" fill="#eef4ee" rx="0"/><line x1="300.0" y1="218.0" x2="820.0" y2="218.0" stroke="#c3c2b7" stroke-width="1"/><line x1="300.0" y1="88.0" x2="300.0" y2="218.0" stroke="#c3c2b7" stroke-width="1"/><line x1="300.0" y1="218.0" x2="820.0" y2="218.0" stroke="#e1e0d9" stroke-width="1"/><text x="294.0" y="221.0" font-size="9" fill="#898781" text-anchor="end" font-weight="400" font-family="system-ui,-apple-system,Segoe UI,sans-serif">0</text><line x1="300.0" y1="153.0" x2="820.0" y2="153.0" stroke="#e1e0d9" stroke-width="1"/><text x="294.0" y="156.0" font-size="9" fill="#898781" text-anchor="end" font-weight="400" font-family="system-ui,-apple-system,Segoe UI,sans-serif">50</text><line x1="300.0" y1="88.0" x2="820.0" y2="88.0" stroke="#e1e0d9" stroke-width="1"/><text x="294.0" y="91.0" font-size="9" fill="#898781" text-anchor="end" font-weight="400" font-family="system-ui,-apple-system,Segoe UI,sans-serif">100</text><path d="M300.0 203.3 L330.6 191.1 L361.2 196.3 L391.8 194.6 L422.4 139.6 L452.9 123.5 L483.5 142.6 L514.1 169.9 L544.7 171.6 L575.3 151.3 L605.9 169.0 L636.5 136.1 L667.1 160.4 L697.6 182.0 L728.2 159.1 L758.8 162.1 L789.4 175.5 L820.0 164.7" fill="none" stroke="#2a78d6" stroke-width="2" stroke-opacity="0.55" stroke-dasharray="4 3"/><path d="M300.0 169.5 L330.6 176.4 L361.2 163.0 L391.8 166.4 L422.4 128.7 L452.9 126.1 L483.5 133.9 L514.1 157.3 L544.7 143.9 L575.3 124.4 L605.9 150.0 L636.5 116.6 L667.1 141.7 L697.6 172.1 L728.2 146.9 L758.8 158.6 L789.4 166.9 L820.0 165.1" fill="none" stroke="#2a78d6" stroke-width="2" stroke-opacity="1"/><text x="828.0" y="102.0" font-size="11" fill="#2a78d6" text-anchor="start" font-weight="600" font-family="system-ui,-apple-system,Segoe UI,sans-serif">abl —</text><text x="828.0" y="118.0" font-size="11" fill="#2a78d6" text-anchor="start" font-weight="400" font-family="system-ui,-apple-system,Segoe UI,sans-serif">base --</text><text x="24.0" y="262.0" font-size="14" fill="#1baf7a" text-anchor="start" font-weight="600" font-family="system-ui,-apple-system,Segoe UI,sans-serif">Qwen</text><rect x="284.7" y="258.0" width="30.6" height="130.0" fill="#eef4ee" rx="0"/><rect x="315.3" y="258.0" width="30.6" height="130.0" fill="#f7eeee" rx="0"/><rect x="345.9" y="258.0" width="30.6" height="130.0" fill="#eef4ee" rx="0"/><rect x="376.5" y="258.0" width="30.6" height="130.0" fill="#eef4ee" rx="0"/><rect x="407.1" y="258.0" width="30.6" height="130.0" fill="#eef4ee" rx="0"/><rect x="437.6" y="258.0" width="30.6" height="130.0" fill="#eef4ee" rx="0"/><rect x="468.2" y="258.0" width="30.6" height="130.0" fill="#f7eeee" rx="0"/><rect x="498.8" y="258.0" width="30.6" height="130.0" fill="#f7eeee" rx="0"/><rect x="529.4" y="258.0" width="30.6" height="130.0" fill="#eef4ee" rx="0"/><rect x="560.0" y="258.0" width="30.6" height="130.0" fill="#eef4ee" rx="0"/><rect x="590.6" y="258.0" width="30.6" height="130.0" fill="#eef4ee" rx="0"/><rect x="621.2" y="258.0" width="30.6" height="130.0" fill="#eef4ee" rx="0"/><rect x="651.8" y="258.0" width="30.6" height="130.0" fill="#f7eeee" rx="0"/><rect x="682.4" y="258.0" width="30.6" height="130.0" fill="#eef4ee" rx="0"/><rect x="712.9" y="258.0" width="30.6" height="130.0" fill="#f7eeee" rx="0"/><rect x="743.5" y="258.0" width="30.6" height="130.0" fill="#f7eeee" rx="0"/><rect x="774.1" y="258.0" width="30.6" height="130.0" fill="#eef4ee" rx="0"/><rect x="804.7" y="258.0" width="30.6" height="130.0" fill="#eef4ee" rx="0"/><line x1="300.0" y1="388.0" x2="820.0" y2="388.0" stroke="#c3c2b7" stroke-width="1"/><line x1="300.0" y1="258.0" x2="300.0" y2="388.0" stroke="#c3c2b7" stroke-width="1"/><line x1="300.0" y1="388.0" x2="820.0" y2="388.0" stroke="#e1e0d9" stroke-width="1"/><text x="294.0" y="391.0" font-size="9" fill="#898781" text-anchor="end" font-weight="400" font-family="system-ui,-apple-system,Segoe UI,sans-serif">0</text><line x1="300.0" y1="323.0" x2="820.0" y2="323.0" stroke="#e1e0d9" stroke-width="1"/><text x="294.0" y="326.0" font-size="9" fill="#898781" text-anchor="end" font-weight="400" font-family="system-ui,-apple-system,Segoe UI,sans-serif">50</text><line x1="300.0" y1="258.0" x2="820.0" y2="258.0" stroke="#e1e0d9" stroke-width="1"/><text x="294.0" y="261.0" font-size="9" fill="#898781" text-anchor="end" font-weight="400" font-family="system-ui,-apple-system,Segoe UI,sans-serif">100</text><path d="M300.0 349.0 L330.6 359.4 L361.2 349.4 L391.8 353.8 L422.4 291.4 L452.9 286.6 L483.5 292.2 L514.1 324.7 L544.7 323.9 L575.3 320.0 L605.9 319.1 L636.5 297.4 L667.1 297.0 L697.6 333.8 L728.2 310.4 L758.8 305.2 L789.4 327.8 L820.0 289.6" fill="none" stroke="#1baf7a" stroke-width="2" stroke-opacity="0.55" stroke-dasharray="4 3"/><path d="M300.0 352.0 L330.6 356.4 L361.2 349.4 L391.8 343.4 L422.4 281.8 L452.9 274.5 L483.5 277.1 L514.1 308.3 L544.7 322.1 L575.3 312.6 L605.9 317.4 L636.5 285.7 L667.1 287.0 L697.6 318.2 L728.2 289.2 L758.8 290.5 L789.4 320.8 L820.0 271.9" fill="none" stroke="#1baf7a" stroke-width="2" stroke-opacity="1"/><text x="828.0" y="272.0" font-size="11" fill="#1baf7a" text-anchor="start" font-weight="600" font-family="system-ui,-apple-system,Segoe UI,sans-serif">abl —</text><text x="828.0" y="288.0" font-size="11" fill="#1baf7a" text-anchor="start" font-weight="400" font-family="system-ui,-apple-system,Segoe UI,sans-serif">base --</text><text x="300.0" y="76.0" font-size="10" fill="#898781" text-anchor="start" font-weight="400" font-family="system-ui,-apple-system,Segoe UI,sans-serif">18 weeks (2026-03-07 … 07-04) · green band = up-week, red band = down-week</text><text x="24.0" y="418.0" font-size="10" fill="#898781" text-anchor="start" font-weight="400" font-family="system-ui,-apple-system,Segoe UI,sans-serif">final.db · 21,600 decyzji · prompt 305718d8 · Fafuła, funduszai.pl</text></svg>