<svg xmlns="http://www.w3.org/2000/svg" width="860" height="380" viewBox="0 0 860 380"><rect x="0.0" y="0.0" width="860.0" height="380.0" fill="#fcfcfb" rx="0"/><text x="24.0" y="34.0" font-size="16" fill="#0b0b0b" text-anchor="start" font-weight="600" font-family="system-ui,-apple-system,Segoe UI,sans-serif">PnL by regime — the edge is beta, not skill</text><text x="24.0" y="54.0" font-size="12" fill="#52514e" text-anchor="start" font-weight="400" font-family="system-ui,-apple-system,Segoe UI,sans-serif">Gemma-abl advantage flips sign with regime (wins up, loses down). Qwen abl≈base (base already regime-follower).</text><text x="165.0" y="88.0" font-size="12" fill="#2a78d6" text-anchor="middle" font-weight="600" font-family="system-ui,-apple-system,Segoe UI,sans-serif">Gemma</text><text x="165.0" y="102.0" font-size="11" fill="#52514e" text-anchor="middle" font-weight="400" font-family="system-ui,-apple-system,Segoe UI,sans-serif">WIG20</text><rect x="92.0" y="185.0" width="16.0" height="2.7" fill="#c3c2b7" rx="1"/><rect x="112.0" y="142.5" width="16.0" height="42.5" fill="#2a78d6" rx="1"/><text x="122.5" y="274.0" font-size="9" fill="#898781" text-anchor="middle" font-weight="400" font-family="system-ui,-apple-system,Segoe UI,sans-serif">UP</text><rect x="177.0" y="181.1" width="16.0" height="3.9" fill="#c3c2b7" rx="1"/><rect x="197.0" y="185.0" width="16.0" height="45.9" fill="#2a78d6" rx="1"/><text x="207.5" y="274.0" font-size="9" fill="#898781" text-anchor="middle" font-weight="400" font-family="system-ui,-apple-system,Segoe UI,sans-serif">DOWN</text><text x="355.0" y="88.0" font-size="12" fill="#2a78d6" text-anchor="middle" font-weight="600" font-family="system-ui,-apple-system,Segoe UI,sans-serif">Gemma</text><text x="355.0" y="102.0" font-size="11" fill="#52514e" text-anchor="middle" font-weight="400" font-family="system-ui,-apple-system,Segoe UI,sans-serif">mWIG40</text><rect x="282.0" y="185.0" width="16.0" height="22.5" fill="#c3c2b7" rx="1"/><rect x="302.0" y="185.0" width="16.0" height="0.7" fill="#2a78d6" rx="1"/><text x="312.5" y="274.0" font-size="9" fill="#898781" text-anchor="middle" font-weight="400" font-family="system-ui,-apple-system,Segoe UI,sans-serif">UP</text><rect x="367.0" y="171.9" width="16.0" height="13.1" fill="#c3c2b7" rx="1"/><rect x="387.0" y="145.9" width="16.0" height="39.1" fill="#2a78d6" rx="1"/><text x="397.5" y="274.0" font-size="9" fill="#898781" text-anchor="middle" font-weight="400" font-family="system-ui,-apple-system,Segoe UI,sans-serif">DOWN</text><text x="545.0" y="88.0" font-size="12" fill="#1baf7a" text-anchor="middle" font-weight="600" font-family="system-ui,-apple-system,Segoe UI,sans-serif">Qwen</text><text x="545.0" y="102.0" font-size="11" fill="#52514e" text-anchor="middle" font-weight="400" font-family="system-ui,-apple-system,Segoe UI,sans-serif">WIG20</text><rect x="472.0" y="125.1" width="16.0" height="59.9" fill="#c3c2b7" rx="1"/><rect x="492.0" y="116.3" width="16.0" height="68.7" fill="#1baf7a" rx="1"/><text x="502.5" y="274.0" font-size="9" fill="#898781" text-anchor="middle" font-weight="400" font-family="system-ui,-apple-system,Segoe UI,sans-serif">UP</text><rect x="557.0" y="185.0" width="16.0" height="18.3" fill="#c3c2b7" rx="1"/><rect x="577.0" y="185.0" width="16.0" height="10.2" fill="#1baf7a" rx="1"/><text x="587.5" y="274.0" font-size="9" fill="#898781" text-anchor="middle" font-weight="400" font-family="system-ui,-apple-system,Segoe UI,sans-serif">DOWN</text><text x="735.0" y="88.0" font-size="12" fill="#1baf7a" text-anchor="middle" font-weight="600" font-family="system-ui,-apple-system,Segoe UI,sans-serif">Qwen</text><text x="735.0" y="102.0" font-size="11" fill="#52514e" text-anchor="middle" font-weight="400" font-family="system-ui,-apple-system,Segoe UI,sans-serif">mWIG40</text><rect x="662.0" y="152.8" width="16.0" height="32.2" fill="#c3c2b7" rx="1"/><rect x="682.0" y="150.3" width="16.0" height="34.7" fill="#1baf7a" rx="1"/><text x="692.5" y="274.0" font-size="9" fill="#898781" text-anchor="middle" font-weight="400" font-family="system-ui,-apple-system,Segoe UI,sans-serif">UP</text><rect x="747.0" y="185.0" width="16.0" height="18.3" fill="#c3c2b7" rx="1"/><rect x="767.0" y="185.0" width="16.0" height="33.4" fill="#1baf7a" rx="1"/><text x="777.5" y="274.0" font-size="9" fill="#898781" text-anchor="middle" font-weight="400" font-family="system-ui,-apple-system,Segoe UI,sans-serif">DOWN</text><line x1="70.0" y1="185.0" x2="840.0" y2="185.0" stroke="#c3c2b7" stroke-width="1"/><text x="64.0" y="188.0" font-size="9" fill="#898781" text-anchor="end" font-weight="400" font-family="system-ui,-apple-system,Segoe UI,sans-serif">0</text><rect x="80.0" y="348.0" width="12.0" height="12.0" fill="#c3c2b7" rx="1"/><text x="98.0" y="358.0" font-size="11" fill="#52514e" text-anchor="start" font-weight="400" font-family="system-ui,-apple-system,Segoe UI,sans-serif">base</text><rect x="170.0" y="348.0" width="12.0" height="12.0" fill="#52514e" rx="1"/><text x="188.0" y="358.0" font-size="11" fill="#52514e" text-anchor="start" font-weight="400" font-family="system-ui,-apple-system,Segoe UI,sans-serif">abl (family hue) · signed return %/dec</text><text x="24.0" y="368.0" font-size="10" fill="#898781" text-anchor="start" font-weight="400" font-family="system-ui,-apple-system,Segoe UI,sans-serif">final.db · 21,600 decyzji · prompt 305718d8 · Fafuła, funduszai.pl</text></svg>